<svg xmlns="http://www.w3.org/2000/svg" width="147.772" height="34.291" viewBox="0 0 147.772 34.291">
  <g id="组_4560" data-name="组 4560" transform="translate(-395.885 -1406.822)">
    <g id="组_3588" data-name="组 3588" transform="translate(395.885 1406.822)">
      <path id="路径_10864" data-name="路径 10864" d="M395.885,1415.4v17.146l14.849,8.573,14.849-8.573V1415.4l-14.849-8.573Z" transform="translate(-395.885 -1406.822)" fill="#e30c34"/>
      <path id="路径_10865" data-name="路径 10865" d="M442.782,1449.4l-9.862,5.694v5.693l4.932-2.848v11.463l4.93,2.842h0V1455.1l4.929-2.846Z" transform="translate(-427.942 -1443.681)" fill="#fff"/>
      <path id="路径_10866" data-name="路径 10866" d="M543.175,1494.725v11.427l4.95-2.858v-11.43Z" transform="translate(-523.378 -1480.434)" fill="#fff"/>
    </g>
    <g id="组_3589" data-name="组 3589" transform="translate(431.715 1415.032)">
      <path id="路径_10867" data-name="路径 10867" d="M662.446,1470.364h6.734c2.646,0,4.277.591,5.434,1.985a11.458,11.458,0,0,1,0,13.231c-1.158,1.394-2.812,2.008-5.434,2.008h-6.734Zm6.734,14.271c2.67,0,3.993-1.867,3.993-5.647,0-3.8-1.323-5.671-3.993-5.671h-3.19v11.318Z" transform="translate(-662.446 -1470.033)" fill="#fff"/>
      <path id="路径_10868" data-name="路径 10868" d="M794.562,1509.069a5.594,5.594,0,0,1-.024.567h-8.553c.071,1.725.425,3.355,2.646,3.355a2.561,2.561,0,0,0,2.528-1.607h3.26a5.906,5.906,0,0,1-5.907,4.135c-3.615,0-5.836-2.5-5.836-6.592,0-4.276,2.245-6.923,5.907-6.923C791.136,1502,794.562,1503.422,794.562,1509.069Zm-6.025-4.536c-1.465,0-2.292.969-2.5,2.906h5.08C790.97,1505.572,790.072,1504.532,788.537,1504.532Z" transform="translate(-766.516 -1497.42)" fill="#fff"/>
      <path id="路径_10869" data-name="路径 10869" d="M884.345,1516.346l-4.466-12.759h3.5l2.764,9.333,2.575-9.333h3.5l-4.395,12.759Z" transform="translate(-850.653 -1498.791)" fill="#fff"/>
      <path id="路径_10870" data-name="路径 10870" d="M988.787,1470.927c-3,0-4.82,2.245-4.82,5.954,0,3.544,2.056,6.049,4.915,6.049.874,0,4.064-.567,4.371-3.828h-3.922v-2.953h6.9v9.309H994.1l-.425-2.268a5.716,5.716,0,0,1-5.2,2.765c-4.654,0-8.057-3.8-8.057-9.026,0-5.363,3.379-9.026,8.34-9.026,4.158,0,7.041,2.245,7.466,5.789H992.9A3.933,3.933,0,0,0,988.787,1470.927Z" transform="translate(-937.683 -1467.903)" fill="#fff"/>
      <path id="路径_10871" data-name="路径 10871" d="M1123.3,1502.217v2.5a3.913,3.913,0,0,1,3.544-2.717,2.892,2.892,0,0,1,.4.024v3.355a5.842,5.842,0,0,0-1.04-.094,2.569,2.569,0,0,0-2.906,2.906v6.781h-3.308v-12.759Z" transform="translate(-1058.489 -1497.42)" fill="#fff"/>
      <path id="路径_10872" data-name="路径 10872" d="M1197.115,1508.856c0,4.088-2.433,6.663-6.308,6.663-3.922,0-6.309-2.552-6.309-6.757,0-4.182,2.386-6.758,6.285-6.758C1194.776,1502,1197.115,1504.532,1197.115,1508.856Zm-9.309-.094c0,2.434,1.2,4.087,3,4.087,1.772,0,3-1.654,3-4.04,0-2.5-1.182-4.135-3-4.135C1189.011,1504.674,1187.806,1506.328,1187.806,1508.762Z" transform="translate(-1114.328 -1497.42)" fill="#fff"/>
      <path id="路径_10873" data-name="路径 10873" d="M1304.924,1516.346v-1.512a4.193,4.193,0,0,1-3.828,2.056c-2.717,0-4.277-1.607-4.277-4.418v-8.884h3.308v8.2c0,1.536.709,2.292,2.126,2.292a2.44,2.44,0,0,0,2.67-2.5v-7.986h3.308v12.759Z" transform="translate(-1211.552 -1498.791)" fill="#fff"/>
      <path id="路径_10874" data-name="路径 10874" d="M1416.762,1508.785c0,3.875-2.268,6.757-5.34,6.757a3.759,3.759,0,0,1-3.544-2.079v6.663h-3.308v-17.909h3.308v1.89a3.78,3.78,0,0,1,3.544-2.1C1414.73,1502,1416.762,1505.028,1416.762,1508.785Zm-8.884,0c0,2.386,1.134,3.993,2.788,3.993,1.63,0,2.788-1.63,2.788-3.946,0-2.433-1.11-4.064-2.788-4.064C1409.012,1504.769,1407.878,1506.4,1407.878,1508.785Z" transform="translate(-1304.819 -1497.42)" fill="#fff"/>
    </g>
  </g>
</svg>
