<svg xmlns="http://www.w3.org/2000/svg" viewBox="0 0 661.5 164.56"><defs><style>.cls-1{fill:#e30c34;}.cls-2{fill:#fff;}</style></defs><g id="图层_2" data-name="图层 2"><g id="Layer_2" data-name="Layer 2"><polygon class="cls-1" points="0 41.14 0 123.42 71.26 164.56 142.51 123.42 142.51 41.14 71.26 0 0 41.14"/><polygon class="cls-2" points="71.22 27.47 23.89 54.79 23.89 82.11 47.56 68.44 47.56 123.45 71.22 137.09 71.22 137.09 71.22 54.78 94.87 41.13 71.22 27.47"/><polygon class="cls-2" points="95.01 68.58 95.01 123.42 118.76 109.71 118.76 54.86 95.01 68.58"/><path class="cls-2" d="M257.82,82.17H238.2v38h-8.9v-38h-24c-1.38,14-6.24,28-22.57,38.25a34.86,34.86,0,0,0-6.87-6.33c14.4-8.81,19.16-20.36,20.63-31.92H175.92V74H197.1V49.61H179V41.54H255v8.07H238.2V74h19.62ZM229.3,74V49.61H205.82V74Z"/><path class="cls-2" d="M350.37,75.11a61.15,61.15,0,0,1-17.43,27.42,78.83,78.83,0,0,0,27.43,10,34.15,34.15,0,0,0-5.41,7.71A75.9,75.9,0,0,1,326.07,108a88.75,88.75,0,0,1-27.52,12.1,33.46,33.46,0,0,0-4.59-7.43,77.1,77.1,0,0,0,25.13-10.36A65.48,65.48,0,0,1,307.17,87a73.92,73.92,0,0,1-26.23,25.87,35.89,35.89,0,0,0-6.33-6.79C291,96.76,301,82.45,307,64.1H294.61c-5.32,0-8.72.65-9.54,1.75-.55-1.84-1.93-5.78-2.85-7.89,1.29-.28,2.39-1.65,3.58-3.67A70.64,70.64,0,0,0,292,38.15l9,1.55a94.55,94.55,0,0,1-6.42,16.24h14.77A189.66,189.66,0,0,0,313,35.49L322.4,37a185.18,185.18,0,0,1-3.31,19h38.25l-.09,8.16H317c-.91,2.94-1.92,6-3,8.72h29l1.65-.37Zm-37.88,6a54.58,54.58,0,0,0,13.3,16.33,50.83,50.83,0,0,0,12.75-16.33ZM344.32,54c-2.39-3.39-7.43-9.17-11.19-13.3l6.69-3.94A165,165,0,0,1,351.2,49.52Z"/><path class="cls-2" d="M425.49,71.9c-4.12,3.12-8.44,5.87-12.84,8.62h35.59v39.17h-8.81v-2.48H404.86v2.84h-8.44V89.23c-5.14,2.39-10.37,4.59-15.59,6.61a46.45,46.45,0,0,0-5.23-7.06A164.91,164.91,0,0,0,411.46,71.9H377.89V64.29h30.36V54H385.87V46.58h22.38V35.85h8.44V46.58h21.37v4a100.58,100.58,0,0,0,10-11.83l7.33,3.85a132.16,132.16,0,0,1-20.27,21.65h24V71.9Zm13.94,15.68H404.86V95.2h34.57Zm0,22.38v-8.07H404.86V110ZM422.65,64.29a130.53,130.53,0,0,0,12-10.28h-18V64.29Z"/><path class="cls-2" d="M507.86,92.54c-1.74-2.57-5.23-6.7-8.35-10.28V120h-8.25V84.37a75.75,75.75,0,0,1-11.65,9.36A41.68,41.68,0,0,0,476,85.29c9.63-5.59,19.36-15.59,25.23-26.23H478.6V51.35h17.34a61.13,61.13,0,0,0-8.26-12l6.61-3.76c3.39,3.58,7.06,8.44,8.62,11.74l-6.61,4h9.45l1.47-.36,4.58,3.21a85.51,85.51,0,0,1-10.91,19.26c3.67,3.3,10.46,10.09,12.29,12Zm53.56,15.86v8.35H509.05V108.4h23.12V72h-19V63.83h19V36h8.71V63.83h18.53V72H540.88V108.4Z"/><path class="cls-2" d="M661.5,109.23v8.16H583.17v-77h76v8.16H591.51v60.72Zm-16.61-5.41A223.09,223.09,0,0,0,626,84.28a137.7,137.7,0,0,1-24,19.54,64.1,64.1,0,0,0-6.7-6.42A123.84,123.84,0,0,0,620,78.78c-7.25-6.51-14.68-12.93-21.47-18.34l6.06-5c6.51,5,13.94,11.19,21.09,17.43a115.06,115.06,0,0,0,15.14-20.55l8,3.21a144.58,144.58,0,0,1-16.88,22.75,225,225,0,0,1,19.81,19.35Z"/></g></g></svg>