<svg xmlns="http://www.w3.org/2000/svg" width="147" height="34.112" viewBox="0 0 147 34.112">
  <g id="组_5247" data-name="组 5247" transform="translate(-192 -20)">
    <g id="组_4868" data-name="组 4868" transform="translate(1021.182 -1216.746)">
      <g id="组_4868-2" data-name="组 4868" transform="translate(-829.182 1236.746)">
        <path id="路径_13989" data-name="路径 13989" d="M-829.182,1245.274v17.056l14.771,8.528,14.771-8.528v-17.056l-14.771-8.528Z" transform="translate(829.182 -1236.746)" fill="#e30c34"/>
        <path id="路径_13990" data-name="路径 13990" d="M-782.337,1279.329l-9.81,5.664v5.663l4.907-2.833v11.4l4.9,2.828h0v-17.062l4.9-2.831Z" transform="translate(797.099 -1273.635)" fill="#fff"/>
        <path id="路径_13991" data-name="路径 13991" d="M-681.892,1324.634V1336l4.924-2.843v-11.37Z" transform="translate(701.586 -1310.417)" fill="#fff"/>
      </g>
      <g id="组_4869" data-name="组 4869" transform="translate(-793.54 1244.913)">
        <path id="路径_13992" data-name="路径 13992" d="M-562.622,1300.288h6.7c2.632,0,4.254.588,5.406,1.974a10.169,10.169,0,0,1,2.092,6.581,10.079,10.079,0,0,1-2.092,6.581c-1.152,1.387-2.8,2-5.406,2h-6.7Zm6.7,14.2c2.656,0,3.972-1.857,3.972-5.618,0-3.784-1.316-5.641-3.972-5.641H-559.1v11.259Z" transform="translate(562.622 -1299.959)" fill="#172d72"/>
        <path id="路径_13993" data-name="路径 13993" d="M-430.568,1338.956a5.575,5.575,0,0,1-.024.564H-439.1c.07,1.716.423,3.338,2.632,3.338a2.548,2.548,0,0,0,2.515-1.6h3.244a5.876,5.876,0,0,1-5.876,4.113c-3.6,0-5.805-2.491-5.805-6.557,0-4.254,2.233-6.887,5.876-6.887C-433.976,1331.928-430.568,1333.338-430.568,1338.956Zm-5.994-4.513c-1.457,0-2.28.964-2.491,2.891H-434C-434.14,1335.477-435.033,1334.443-436.561,1334.443Z" transform="translate(458.466 -1327.368)" fill="#172d72"/>
        <path id="路径_13994" data-name="路径 13994" d="M-340.746,1346.2l-4.442-12.692h3.478l2.75,9.284,2.562-9.284h3.479l-4.372,12.692Z" transform="translate(374.261 -1328.739)" fill="#172d72"/>
        <path id="路径_13995" data-name="路径 13995" d="M-236.324,1300.835c-2.985,0-4.795,2.233-4.795,5.923,0,3.526,2.045,6.017,4.889,6.017.87,0,4.043-.564,4.348-3.808h-3.9v-2.938h6.863v9.261h-2.115l-.423-2.256a5.687,5.687,0,0,1-5.171,2.75c-4.63,0-8.015-3.784-8.015-8.979,0-5.335,3.361-8.979,8.3-8.979,4.137,0,7,2.233,7.427,5.758h-3.314A3.913,3.913,0,0,0-236.324,1300.835Z" transform="translate(287.161 -1297.827)" fill="#172d72"/>
        <path id="路径_13996" data-name="路径 13996" d="M-101.788,1332.14v2.491a3.893,3.893,0,0,1,3.526-2.7,2.878,2.878,0,0,1,.4.024v3.338a5.813,5.813,0,0,0-1.034-.094,2.555,2.555,0,0,0-2.891,2.891v6.746h-3.29V1332.14Z" transform="translate(166.257 -1327.368)" fill="#172d72"/>
        <path id="路径_13997" data-name="路径 13997" d="M-28.018,1338.744c0,4.066-2.421,6.628-6.276,6.628-3.9,0-6.275-2.538-6.275-6.722,0-4.16,2.374-6.722,6.252-6.722C-30.345,1331.928-28.018,1334.443-28.018,1338.744Zm-9.261-.094c0,2.421,1.2,4.066,2.985,4.066,1.763,0,2.985-1.645,2.985-4.019,0-2.491-1.175-4.113-2.985-4.113C-36.08,1334.584-37.279,1336.229-37.279,1338.65Z" transform="translate(110.373 -1327.368)" fill="#172d72"/>
        <path id="路径_13998" data-name="路径 13998" d="M79.814,1346.2v-1.5a4.17,4.17,0,0,1-3.808,2.045c-2.7,0-4.254-1.6-4.254-4.4v-8.838h3.291v8.156c0,1.528.705,2.28,2.115,2.28a2.428,2.428,0,0,0,2.656-2.491v-7.944H83.1V1346.2Z" transform="translate(13.071 -1328.739)" fill="#172d72"/>
        <path id="路径_13999" data-name="路径 13999" d="M191.63,1338.674c0,3.855-2.256,6.722-5.312,6.722a3.74,3.74,0,0,1-3.526-2.068v6.628H179.5V1332.14h3.291v1.88a3.76,3.76,0,0,1,3.526-2.092C189.609,1331.928,191.63,1334.937,191.63,1338.674Zm-8.837,0c0,2.374,1.128,3.972,2.773,3.972,1.622,0,2.773-1.622,2.773-3.925,0-2.421-1.1-4.043-2.773-4.043C183.921,1334.678,182.793,1336.3,182.793,1338.674Z" transform="translate(-80.272 -1327.368)" fill="#172d72"/>
      </g>
    </g>
  </g>
</svg>
