<svg xmlns="http://www.w3.org/2000/svg" width="14" height="12" viewBox="0 0 14 12"><path d="M31.556,104.045a3.383,3.383,0,1,1,3.385-3.386A3.386,3.386,0,0,1,31.556,104.045Zm0-5.782a2.4,2.4,0,1,0,2.4,2.4A2.4,2.4,0,0,0,31.556,98.263ZM36.5,109.28h-9.9a.5.5,0,0,1-.5-.5c0-2.388,2.444-4.325,5.444-4.325S37,106.4,37,108.785A.5.5,0,0,1,36.5,109.28Zm-9.356-.991h8.815c-.319-1.612-2.17-2.847-4.407-2.847S27.468,106.685,27.149,108.289Zm12.963-.325a4.711,4.711,0,0,0-1.4-3.268,4.529,4.529,0,0,0-1.281-.887,2.889,2.889,0,0,0-1.793-5.161.5.5,0,1,0,0,.991,1.9,1.9,0,0,1,.015,3.8h-.015a.492.492,0,1,0,.007.983h.022a3.267,3.267,0,0,1,2.348.969,3.779,3.779,0,0,1,1.1,2.573.5.5,0,0,0,.993,0Z" transform="translate(-26.112 -97.28)" fill="#565c6f"/></svg>