<svg xmlns="http://www.w3.org/2000/svg" width="60" height="60" viewBox="0 0 60 60">
  <g id="组_4611" data-name="组 4611" transform="translate(-404 -1144)">
    <g id="kitchen11" transform="translate(404 1144)">
      <circle id="椭圆_1136" data-name="椭圆 1136" cx="21.724" cy="21.724" r="21.724" transform="translate(1.034 1.034)" fill="#fff"/>
      <path id="路径_11068" data-name="路径 11068" d="M301.625,296l18.75,18.75a5.642,5.642,0,0,1-5.625,5.625L296,301.625" transform="translate(-261.312 -261.312)" fill="#f9746c"/>
      <g id="组_4601" data-name="组 4601">
        <path id="路径_11069" data-name="路径 11069" d="M22.5,45A22.5,22.5,0,1,1,45,22.5,22.566,22.566,0,0,1,22.5,45Zm0-43.125A20.625,20.625,0,1,0,43.125,22.5,20.686,20.686,0,0,0,22.5,1.875Z" fill="#4d5152"/>
        <path id="路径_11070" data-name="路径 11070" d="M309.806,316.369a.851.851,0,0,1-.656-.281l-18.75-18.75,1.312-1.312,18.469,18.469a4.715,4.715,0,0,0,4.313-4.312l-18.469-18.469,1.312-1.312,18.75,18.75a.851.851,0,0,1,.281.656A6.522,6.522,0,0,1,309.806,316.369Z" transform="translate(-256.369 -256.369)" fill="#4d5152"/>
        <rect id="矩形_4132" data-name="矩形 4132" width="1.034" height="1.034" transform="translate(53.793 53.793)" fill="#4d5152"/>
      </g>
      <circle id="椭圆_1137" data-name="椭圆 1137" cx="15" cy="15" r="15" transform="translate(7.241 7.241)" fill="#6c63ff"/>
    </g>
  </g>
</svg>
