<svg xmlns="http://www.w3.org/2000/svg" xmlns:xlink="http://www.w3.org/1999/xlink" width="80" height="57" viewBox="0 0 80 57">
  <defs>
    <clipPath id="clip-path">
      <rect id="矩形_4136" data-name="矩形 4136" width="27.313" height="17" transform="translate(0 0)" fill="#4d5152"/>
    </clipPath>
  </defs>
  <g id="组_4614" data-name="组 4614" transform="translate(-257 -1282)">
    <rect id="矩形_4113" data-name="矩形 4113" width="77.589" height="37.321" transform="translate(257.982 1300.696)" fill="#fff"/>
    <path id="路径_11031" data-name="路径 11031" d="M80,216H0V176H80ZM2.5,213.5h75v-35H2.5Z" transform="translate(257 1123)" fill="#4d5152"/>
    <path id="路径_11084" data-name="路径 11084" d="M0,0H24.554V4.911H0Z" transform="translate(284.5 1326.232)" fill="#6c63ff"/>
    <path id="路径_11032" data-name="路径 11032" d="M195.5,351.5H168V344h27.5Zm-25-2.5H193v-2.5H170.5Z" transform="translate(115.25 981.25)" fill="#4d5152"/>
    <path id="路径_11034" data-name="路径 11034" d="M111.5,223.5H104V216h7.5Zm-5-2.5H109v-2.5h-2.5Z" transform="translate(169.25 1089.25)" fill="#4d5152"/>
    <path id="路径_11035" data-name="路径 11035" d="M175.5,223.5H168V216h7.5Zm-5-2.5H173v-2.5h-2.5Z" transform="translate(115.25 1089.25)" fill="#4d5152"/>
    <path id="路径_11036" data-name="路径 11036" d="M239.5,223.5H232V216h7.5Zm-5-2.5H237v-2.5h-2.5Z" transform="translate(61.25 1089.25)" fill="#4d5152"/>
    <path id="路径_11037" data-name="路径 11037" d="M303.5,223.5H296V216h7.5Zm-5-2.5H301v-2.5h-2.5Z" transform="translate(7.25 1089.25)" fill="#4d5152"/>
    <path id="路径_11038" data-name="路径 11038" d="M367.5,223.5H360V216h7.5Zm-5-2.5H365v-2.5h-2.5Z" transform="translate(-46.75 1089.25)" fill="#4d5152"/>
    <path id="路径_11040" data-name="路径 11040" d="M47.5,287.5H40V280h7.5Zm-5-2.5H45v-2.5H42.5Z" transform="translate(223.25 1035.25)" fill="#4d5152"/>
    <path id="路径_11041" data-name="路径 11041" d="M111.5,287.5H104V280h7.5Zm-5-2.5H109v-2.5h-2.5Z" transform="translate(169.25 1035.25)" fill="#4d5152"/>
    <path id="路径_11042" data-name="路径 11042" d="M175.5,287.5H168V280h7.5Zm-5-2.5H173v-2.5h-2.5Z" transform="translate(115.25 1035.25)" fill="#4d5152"/>
    <path id="路径_11043" data-name="路径 11043" d="M239.5,287.5H232V280h7.5Zm-5-2.5H237v-2.5h-2.5Z" transform="translate(61.25 1035.25)" fill="#4d5152"/>
    <path id="路径_11044" data-name="路径 11044" d="M303.5,287.5H296V280h7.5Zm-5-2.5H301v-2.5h-2.5Z" transform="translate(7.25 1035.25)" fill="#4d5152"/>
    <path id="路径_11045" data-name="路径 11045" d="M367.5,287.5H360V280h7.5Zm-5-2.5H365v-2.5h-2.5Z" transform="translate(-46.75 1035.25)" fill="#4d5152"/>
    <path id="路径_11046" data-name="路径 11046" d="M431.5,287.5H424V280h7.5Zm-5-2.5H429v-2.5h-2.5Z" transform="translate(-100.75 1035.25)" fill="#4d5152"/>
    <path id="路径_11047" data-name="路径 11047" d="M47.5,351.5H40V344h7.5Zm-5-2.5H45v-2.5H42.5Z" transform="translate(223.25 981.25)" fill="#4d5152"/>
    <path id="路径_11048" data-name="路径 11048" d="M111.5,351.5H104V344h7.5Zm-5-2.5H109v-2.5h-2.5Z" transform="translate(169.25 981.25)" fill="#4d5152"/>
    <path id="路径_11049" data-name="路径 11049" d="M367.5,351.5H360V344h7.5Zm-5-2.5H365v-2.5h-2.5Z" transform="translate(-46.75 981.25)" fill="#4d5152"/>
    <path id="路径_11050" data-name="路径 11050" d="M431.5,351.5H424V344h7.5Zm-5-2.5H429v-2.5h-2.5Z" transform="translate(-100.75 981.25)" fill="#4d5152"/>
    <g id="组_4606" data-name="组 4606" transform="translate(284 1282)">
      <g id="组_4605" data-name="组 4605" transform="translate(0 0)" clip-path="url(#clip-path)">
        <path id="路径_11083" data-name="路径 11083" d="M14.575,17h-1.9a5.379,5.379,0,0,1,5.6-5.117h3.251a3.671,3.671,0,0,0,3.891-3.392A3.671,3.671,0,0,0,21.518,5.1H5.576A5.359,5.359,0,0,1,0,0H1.9A3.462,3.462,0,0,0,5.576,3.195H21.518a5.569,5.569,0,0,1,5.8,5.3,5.569,5.569,0,0,1-5.8,5.3H18.267A3.481,3.481,0,0,0,14.575,17" transform="translate(0 0)" fill="#4d5152"/>
      </g>
    </g>
    <rect id="矩形_4139" data-name="矩形 4139" width="4" height="4" transform="translate(265 1307)" fill="#f9746c"/>
    <path id="路径_11091" data-name="路径 11091" d="M47.5,223.5H40V216h7.5Zm-5-2.5H45v-2.5H42.5Z" transform="translate(223.25 1089.25)" fill="#4d5152"/>
    <rect id="矩形_4140" data-name="矩形 4140" width="4" height="4" transform="translate(325 1307)" fill="#f9746c"/>
    <path id="路径_11092" data-name="路径 11092" d="M431.5,223.5H424V216h7.5Zm-5-2.5H429v-2.5h-2.5Z" transform="translate(-100.75 1089.25)" fill="#4d5152"/>
  </g>
</svg>
