<svg xmlns="http://www.w3.org/2000/svg" width="60" height="60" viewBox="0 0 60 60">
  <g id="组_4610" data-name="组 4610" transform="translate(-312 -1144)">
    <g id="tech7" transform="translate(312 1144)">
      <circle id="椭圆_1139" data-name="椭圆 1139" cx="19.651" cy="19.651" r="19.651" transform="translate(10.054 10.968)" fill="#f9746c"/>
      <g id="组_4602" data-name="组 4602" transform="translate(0.938 0.938)">
        <path id="路径_11071" data-name="路径 11071" d="M207,21.125c0,6.187-7.5,13.125-7.5,13.125S192,27.313,192,21.125,199.5,8,199.5,8,207,14.938,207,21.125Z" transform="translate(-170.438 -8)" fill="#fff"/>
        <path id="路径_11072" data-name="路径 11072" d="M144.438,218.638c3.281,3.281,5.625,10.313,5.625,10.313s-6.094.469-9.375-2.812S136,215.826,136,215.826,141.156,215.357,144.438,218.638Z" transform="translate(-121 -191.451)" fill="#fff"/>
        <path id="路径_11073" data-name="路径 11073" d="M261.625,218.638c-3.281,3.281-5.625,10.313-5.625,10.313s6.094.469,9.375-2.812,4.688-10.313,4.688-10.313S264.906,215.357,261.625,218.638Z" transform="translate(-226.938 -191.451)" fill="#fff"/>
        <path id="路径_11074" data-name="路径 11074" d="M13.625,180.187h3.75l9.375,9.375a7.321,7.321,0,0,1,1.875,4.688v7.5H18.313v-1.875a5.807,5.807,0,0,0-1.875-3.75l-6.562-6.562A5.807,5.807,0,0,1,8,185.812v-15a2.813,2.813,0,0,1,5.625,0v9.375Z" transform="translate(-8 -149.25)" fill="#fff"/>
        <path id="路径_11075" data-name="路径 11075" d="M343,180.187h-3.75l-9.375,9.375A7.321,7.321,0,0,0,328,194.25v7.5h10.313v-1.875a5.807,5.807,0,0,1,1.875-3.75l6.563-6.562a5.807,5.807,0,0,0,1.875-3.75v-15a2.813,2.813,0,0,0-5.625,0v9.375Z" transform="translate(-290.5 -149.25)" fill="#fff"/>
      </g>
      <g id="组_4603" data-name="组 4603" transform="translate(9.14 53.012)">
        <rect id="矩形_4133" data-name="矩形 4133" width="14.624" height="6.398" transform="translate(0 0)" fill="#6c63ff"/>
        <rect id="矩形_4134" data-name="矩形 4134" width="13.71" height="6.398" transform="translate(27.42 0)" fill="#6c63ff"/>
      </g>
      <g id="组_4604" data-name="组 4604">
        <path id="路径_11076" data-name="路径 11076" d="M22.5,195.625H10.313v-2.812a5.237,5.237,0,0,0-1.594-3.094l-6.563-6.562A6.636,6.636,0,0,1,0,178.75v-15a3.75,3.75,0,1,1,7.5,0v7.5H5.625v-7.5a1.875,1.875,0,0,0-3.75,0v15a5.237,5.237,0,0,0,1.594,3.094l6.562,6.563a6.636,6.636,0,0,1,2.156,4.406v.938h8.438v-6.563a6.31,6.31,0,0,0-1.594-4.031l-9.094-9.094H9.375A1.88,1.88,0,0,0,7.5,175.938v.563l6.281,6.281-1.312,1.313L5.625,177.25v-1.312a3.761,3.761,0,0,1,3.75-3.75h1.313l9.656,9.656a8.179,8.179,0,0,1,2.156,5.344Z" transform="translate(0 -141.25)" fill="#4d5152"/>
        <path id="路径_11077" data-name="路径 11077" d="M87.938,455.5H72V448H87.938Zm-14.063-1.875H86.063v-3.75H73.875Z" transform="translate(-63.563 -395.5)" fill="#4d5152"/>
        <path id="路径_11078" data-name="路径 11078" d="M332.188,195.625H320v-8.437a8.179,8.179,0,0,1,2.156-5.344l9.656-9.656h1.313a3.761,3.761,0,0,1,3.75,3.75v1.313l-6.844,6.844-1.312-1.313L335,176.5v-.562a1.881,1.881,0,0,0-1.875-1.875h-.563l-9.094,9.094a6.31,6.31,0,0,0-1.594,4.031v6.563h8.438v-.938a6.636,6.636,0,0,1,2.156-4.406l6.562-6.562a4.639,4.639,0,0,0,1.594-3.094v-15a1.875,1.875,0,0,0-3.75,0v7.5H335v-7.5a3.75,3.75,0,1,1,7.5,0v15a6.636,6.636,0,0,1-2.156,4.406l-6.562,6.563a5.237,5.237,0,0,0-1.594,3.094Z" transform="translate(-282.5 -141.25)" fill="#4d5152"/>
        <path id="路径_11079" data-name="路径 11079" d="M319.938,455.5H304V448h15.938Zm-14.062-1.875h12.188v-3.75H305.875Z" transform="translate(-268.375 -395.5)" fill="#4d5152"/>
        <rect id="矩形_4135" data-name="矩形 4135" width="1.828" height="37.474" transform="translate(29.248 12.796)" fill="#4d5152"/>
        <path id="路径_11080" data-name="路径 11080" d="M192.438,28.125a1.013,1.013,0,0,1-.656-.281C191.5,27.563,184,20.625,184,14.063S191.5.563,191.781.281a.906.906,0,0,1,1.313,0c.281.281,7.781,7.219,7.781,13.781s-7.5,13.5-7.781,13.781A1.013,1.013,0,0,1,192.438,28.125Zm0-25.875c-1.781,1.781-6.562,7.125-6.562,11.812s4.781,10.031,6.563,11.813C194.219,24.094,199,18.75,199,14.063S194.219,4.031,192.438,2.25Z" transform="translate(-162.438)" fill="#4d5152"/>
        <path id="路径_11081" data-name="路径 11081" d="M141.879,223c-1.781,0-6.375-.281-9.187-3.094-3.469-3.469-4.875-10.5-4.969-10.781a.729.729,0,0,1,.188-.75.949.949,0,0,1,.656-.375h.844c1.594,0,5.531.281,8.344,3.094,3.469,3.469,5.719,10.406,5.813,10.687a.911.911,0,0,1-.094.844.761.761,0,0,1-.75.375Zm-12-13.125c.563,2.063,1.875,6.375,4.219,8.719,2.156,2.156,5.625,2.531,7.406,2.531-.844-2.063-2.625-6.375-4.969-8.719A10.105,10.105,0,0,0,129.879,209.875Z" transform="translate(-112.723 -183.625)" fill="#4d5152"/>
        <path id="路径_11082" data-name="路径 11082" d="M249.958,223h-.937a1.157,1.157,0,0,1-.75-.375,1.3,1.3,0,0,1,0-.844c.094-.281,2.438-7.219,5.813-10.687,2.812-2.812,6.75-3.094,8.344-3.094h.844a.949.949,0,0,1,.656.375,1.01,1.01,0,0,1,.188.75c-.094.281-1.5,7.313-4.969,10.781C256.333,222.719,251.833,223,249.958,223Zm12-13.125c-1.5.094-4.5.469-6.562,2.531-2.344,2.344-4.125,6.656-4.969,8.719,1.781-.094,5.25-.469,7.406-2.531C260.177,216.25,261.489,211.938,261.958,209.875Z" transform="translate(-219.114 -183.625)" fill="#4d5152"/>
      </g>
    </g>
  </g>
</svg>
