<svg id="图层_2" data-name="图层 2" xmlns="http://www.w3.org/2000/svg" width="16.214" height="20" viewBox="0 0 16.214 20">
  <g id="BACKGROUND_2" data-name="BACKGROUND 2">
    <path id="路径_14070" data-name="路径 14070" d="M13.676,0H2.537A2.546,2.546,0,0,0,0,2.537V18.257A1.743,1.743,0,0,0,1.743,20a1.824,1.824,0,0,0,.811-.178L7.847,17.17a.657.657,0,0,1,.567,0l5.294,2.651a1.775,1.775,0,0,0,.811.178,1.743,1.743,0,0,0,1.694-1.743V2.537A2.546,2.546,0,0,0,13.676,0Zm-.162,2.7V16.716L9.6,14.763a3.3,3.3,0,0,0-2.983,0L2.7,16.716V2.7Z" fill="#fff"/>
    <path id="路径_14071" data-name="路径 14071" d="M5.8,11.089H7.866v2.075a1.111,1.111,0,1,0,2.221,0V11.089h2.067a1.111,1.111,0,1,0,0-2.213H10.087V6.8a1.111,1.111,0,0,0-2.221,0V8.876H5.8a1.111,1.111,0,1,0,0,2.213Z" transform="translate(-0.87 -1.077)" fill="#fff"/>
  </g>
</svg>
