<svg xmlns="http://www.w3.org/2000/svg" width="20.003" height="20" viewBox="0 0 20.003 20">
  <g id="图层_2" data-name="图层 2" transform="translate(0 0)">
    <g id="BACKGROUND_2" data-name="BACKGROUND 2">
      <path id="路径_14069" data-name="路径 14069" d="M18.25,9.32a1.69,1.69,0,0,1,1.24.49A1.6,1.6,0,0,1,20,11a1.53,1.53,0,0,1-1.12,1.56l-2.06.71.67,2a1.71,1.71,0,0,1,.08.57,1.66,1.66,0,0,1-.5,1.22,1.62,1.62,0,0,1-1.21.52,1.79,1.79,0,0,1-1-.32,1.69,1.69,0,0,1-.64-.87l-.67-2L9.79,15.71l.66,2a1.9,1.9,0,0,1,.1.57A1.67,1.67,0,0,1,10,19.47,1.61,1.61,0,0,1,8.82,20a1.68,1.68,0,0,1-1-.33,1.63,1.63,0,0,1-.64-.86l-.66-2-1.84.64a2.13,2.13,0,0,1-.6.11,1.66,1.66,0,0,1-1.22-.48,1.63,1.63,0,0,1-.49-1.22,1.72,1.72,0,0,1,.33-1,1.77,1.77,0,0,1,.86-.64l1.88-.63L4.16,9.84l-1.88.65a2.09,2.09,0,0,1-.57.09A1.67,1.67,0,0,1,.49,10.1,1.64,1.64,0,0,1,0,8.89a1.68,1.68,0,0,1,.33-1,1.71,1.71,0,0,1,.86-.64l1.89-.64L2.44,4.68a1.87,1.87,0,0,1-.09-.56,1.67,1.67,0,0,1,.5-1.23,1.66,1.66,0,0,1,1.23-.51,1.79,1.79,0,0,1,1,.32,1.73,1.73,0,0,1,.63.87l.65,1.92,3.73-1.26L9.46,2.31a1.63,1.63,0,0,1-.1-.57A1.67,1.67,0,0,1,9.87.52,1.64,1.64,0,0,1,11.09,0a1.73,1.73,0,0,1,1,.33,1.71,1.71,0,0,1,.64.86l.64,1.93,1.95-.66a2.16,2.16,0,0,1,.51-.07,1.73,1.73,0,0,1,1.23.48,1.55,1.55,0,0,1,.52,1.18,1.5,1.5,0,0,1-.36,1,2,2,0,0,1-.89.62l-1.89.65,1.26,3.79,2-.67a1.86,1.86,0,0,1,.55-.09ZM8.71,12.47l3.72-1.26L11.17,7.42,7.45,8.71Z" fill="#fff"/>
    </g>
  </g>
</svg>
