<svg xmlns="http://www.w3.org/2000/svg" width="80" height="80" viewBox="0 0 80 80">
  <g id="组_4610" data-name="组 4610" transform="translate(-312 -1144)">
    <g id="tech7" transform="translate(312 1144)">
      <circle id="椭圆_1139" data-name="椭圆 1139" cx="26.201" cy="26.201" r="26.201" transform="translate(13.405 14.624)" fill="#f9746c"/>
      <g id="组_4602" data-name="组 4602" transform="translate(1.25 1.25)">
        <path id="路径_11071" data-name="路径 11071" d="M212,25.5c0,8.25-10,17.5-10,17.5s-10-9.25-10-17.5S202,8,202,8,212,17.25,212,25.5Z" transform="translate(-163.25 -8)" fill="#fff"/>
        <path id="路径_11072" data-name="路径 11072" d="M147.25,219.583c4.375,4.375,7.5,13.75,7.5,13.75s-8.125.625-12.5-3.75-6.25-13.75-6.25-13.75S142.875,215.208,147.25,219.583Z" transform="translate(-116 -183.333)" fill="#fff"/>
        <path id="路径_11073" data-name="路径 11073" d="M263.5,219.583c-4.375,4.375-7.5,13.75-7.5,13.75s8.125.625,12.5-3.75,6.25-13.75,6.25-13.75S267.875,215.208,263.5,219.583Z" transform="translate(-217.25 -183.333)" fill="#fff"/>
        <path id="路径_11074" data-name="路径 11074" d="M15.5,184.25h5L33,196.75A9.761,9.761,0,0,1,35.5,203v10H21.75v-2.5a7.743,7.743,0,0,0-2.5-5l-8.75-8.75a7.743,7.743,0,0,1-2.5-5v-20A3.683,3.683,0,0,1,11.75,168a3.683,3.683,0,0,1,3.75,3.75v12.5Z" transform="translate(-8 -143)" fill="#fff"/>
        <path id="路径_11075" data-name="路径 11075" d="M348,184.25h-5l-12.5,12.5A9.761,9.761,0,0,0,328,203v10h13.75v-2.5a7.743,7.743,0,0,1,2.5-5l8.75-8.75a7.743,7.743,0,0,0,2.5-5v-20a3.75,3.75,0,0,0-7.5,0v12.5Z" transform="translate(-278 -143)" fill="#fff"/>
      </g>
      <g id="组_4603" data-name="组 4603" transform="translate(12.187 70.682)">
        <rect id="矩形_4133" data-name="矩形 4133" width="19.499" height="8.531" transform="translate(0 0)" fill="#6c63ff"/>
        <rect id="矩形_4134" data-name="矩形 4134" width="18.28" height="8.531" transform="translate(36.56 0)" fill="#6c63ff"/>
      </g>
      <g id="组_4604" data-name="组 4604">
        <path id="路径_11076" data-name="路径 11076" d="M30,207.5H13.75v-3.75a6.982,6.982,0,0,0-2.125-4.125l-8.75-8.75A8.848,8.848,0,0,1,0,185V165a5,5,0,1,1,10,0v10H7.5V165a2.5,2.5,0,0,0-5,0v20a6.982,6.982,0,0,0,2.125,4.125l8.75,8.75a8.848,8.848,0,0,1,2.875,5.875V205H27.5v-8.75a8.414,8.414,0,0,0-2.125-5.375L13.25,178.75H12.5a2.507,2.507,0,0,0-2.5,2.5V182l8.375,8.375-1.75,1.75L7.5,183v-1.75a5.015,5.015,0,0,1,5-5h1.75l12.875,12.875A10.906,10.906,0,0,1,30,196.25Z" transform="translate(0 -135)" fill="#4d5152"/>
        <path id="路径_11077" data-name="路径 11077" d="M93.25,458H72V448H93.25ZM74.5,455.5H90.75v-5H74.5Z" transform="translate(-60.75 -378)" fill="#4d5152"/>
        <path id="路径_11078" data-name="路径 11078" d="M336.25,207.5H320V196.25a10.906,10.906,0,0,1,2.875-7.125L335.75,176.25h1.75a5.015,5.015,0,0,1,5,5V183l-9.125,9.125-1.75-1.75L340,182v-.75a2.507,2.507,0,0,0-2.5-2.5h-.75l-12.125,12.125a8.414,8.414,0,0,0-2.125,5.375V205h11.25v-1.25a8.848,8.848,0,0,1,2.875-5.875l8.75-8.75A6.186,6.186,0,0,0,347.5,185V165a2.5,2.5,0,0,0-5,0v10H340V165a5,5,0,1,1,10,0v20a8.848,8.848,0,0,1-2.875,5.875l-8.75,8.75a6.982,6.982,0,0,0-2.125,4.125Z" transform="translate(-270 -135)" fill="#4d5152"/>
        <path id="路径_11079" data-name="路径 11079" d="M325.25,458H304V448h21.25Zm-18.75-2.5h16.25v-5H306.5Z" transform="translate(-256.5 -378)" fill="#4d5152"/>
        <rect id="矩形_4135" data-name="矩形 4135" width="2.437" height="49.965" transform="translate(38.997 17.061)" fill="#4d5152"/>
        <path id="路径_11080" data-name="路径 11080" d="M195.25,37.5a1.35,1.35,0,0,1-.875-.375C194,36.75,184,27.5,184,18.75S194,.75,194.375.375a1.208,1.208,0,0,1,1.75,0C196.5.75,206.5,10,206.5,18.75s-10,18-10.375,18.375A1.35,1.35,0,0,1,195.25,37.5Zm0-34.5c-2.375,2.375-8.75,9.5-8.75,15.75s6.375,13.375,8.75,15.75C197.625,32.125,204,25,204,18.75S197.625,5.375,195.25,3Z" transform="translate(-155.25)" fill="#4d5152"/>
        <path id="路径_11081" data-name="路径 11081" d="M146.61,228c-2.375,0-8.5-.375-12.25-4.125-4.625-4.625-6.5-14-6.625-14.375a.972.972,0,0,1,.25-1,1.265,1.265,0,0,1,.875-.5h1.125c2.125,0,7.375.375,11.125,4.125,4.625,4.625,7.625,13.875,7.75,14.25a1.215,1.215,0,0,1-.125,1.125,1.014,1.014,0,0,1-1,.5Zm-16-17.5c.75,2.75,2.5,8.5,5.625,11.625,2.875,2.875,7.5,3.375,9.875,3.375-1.125-2.75-3.5-8.5-6.625-11.625A13.474,13.474,0,0,0,130.61,210.5Z" transform="translate(-107.735 -175.5)" fill="#4d5152"/>
        <path id="路径_11082" data-name="路径 11082" d="M250.544,228h-1.25a1.543,1.543,0,0,1-1-.5,1.734,1.734,0,0,1,0-1.125c.125-.375,3.25-9.625,7.75-14.25,3.75-3.75,9-4.125,11.125-4.125h1.125a1.265,1.265,0,0,1,.875.5,1.347,1.347,0,0,1,.25,1c-.125.375-2,9.75-6.625,14.375C259.044,227.625,253.044,228,250.544,228Zm16-17.5c-2,.125-6,.625-8.75,3.375-3.125,3.125-5.5,8.875-6.625,11.625,2.375-.125,7-.625,9.875-3.375C264.169,219,265.919,213.25,266.544,210.5Z" transform="translate(-209.419 -175.5)" fill="#4d5152"/>
      </g>
    </g>
  </g>
</svg>
