<svg xmlns="http://www.w3.org/2000/svg" width="70.805" height="80" viewBox="0 0 70.805 80">
  <g id="tech16" transform="translate(-29.425)">
    <circle id="椭圆_1252" data-name="椭圆 1252" cx="29.333" cy="29.333" r="29.333" transform="translate(35.476 10.667)" fill="#f9746c"/>
    <circle id="椭圆_1253" data-name="椭圆 1253" cx="12" cy="12" r="12" transform="translate(52.809 28)" fill="#fff"/>
    <g id="组_5124" data-name="组 5124" transform="translate(29.425)">
      <path id="路径_14195" data-name="路径 14195" d="M183.881,80c-8.667,0-13.333-20.667-13.333-40s4.667-40,13.333-40,13.333,20.667,13.333,40S192.548,80,183.881,80Zm0-77.333C178.815,2.667,173.215,18,173.215,40s5.6,37.333,10.667,37.333S194.548,62,194.548,40,188.948,2.667,183.881,2.667Z" transform="translate(-148.498)" fill="#4d5152"/>
      <path id="路径_14196" data-name="路径 14196" d="M38.143,153.334c-4,0-6.667-1.067-8-3.333-4.267-7.467,11.2-21.867,28-31.6,12.533-7.2,25.333-11.733,33.333-11.733,4,0,6.667,1.067,8,3.333,4.267,7.467-11.2,21.867-28,31.6C58.943,148.8,46.143,153.334,38.143,153.334Zm53.333-44c-7.6,0-19.867,4.4-32,11.333-19.067,11.067-29.467,23.6-26.933,28,.933,1.6,3.6,2,5.6,2,7.6,0,19.867-4.4,32-11.333,19.067-11.067,29.6-23.6,27.067-28C96.276,109.734,93.609,109.334,91.476,109.334Z" transform="translate(-29.425 -90)" fill="#4d5152"/>
      <path id="路径_14197" data-name="路径 14197" d="M91.476,153.334c-8,0-20.8-4.533-33.333-11.733-16.8-9.733-32.267-24.133-28-31.6,1.2-2.133,4-3.333,8-3.333,8,0,20.8,4.533,33.333,11.733,9.067,5.2,16.933,11.2,22.267,16.933,5.733,6.133,7.733,11.2,5.733,14.533C98.276,152.134,95.476,153.334,91.476,153.334Zm-53.333-44c-2,0-4.667.4-5.6,2-2.533,4.4,8,16.933,26.933,27.867,12.133,7.067,24.4,11.333,32,11.333,2,0,4.667-.4,5.6-2,1.2-2.133-.8-6.4-5.333-11.467-5.067-5.467-12.8-11.333-21.6-16.4C58.009,113.734,45.743,109.334,38.143,109.334Z" transform="translate(-29.425 -90)" fill="#4d5152"/>
    </g>
    <circle id="椭圆_1254" data-name="椭圆 1254" cx="5.333" cy="5.333" r="5.333" transform="translate(59.476 34.667)" fill="#6c63ff"/>
    <circle id="椭圆_1255" data-name="椭圆 1255" cx="4" cy="4" r="4" transform="translate(31.476 28)" fill="#fff"/>
    <path id="路径_14198" data-name="路径 14198" d="M39.348,181.334A5.333,5.333,0,1,1,44.682,176,5.349,5.349,0,0,1,39.348,181.334Zm0-8A2.667,2.667,0,1,0,42.015,176,2.675,2.675,0,0,0,39.348,173.334Z" transform="translate(-3.872 -144)" fill="#4d5152"/>
    <circle id="椭圆_1256" data-name="椭圆 1256" cx="4" cy="4" r="4" transform="translate(68.809 65.333)" fill="#fff"/>
    <path id="路径_14199" data-name="路径 14199" d="M278.281,420.268a5.333,5.333,0,1,1,5.333-5.333A5.349,5.349,0,0,1,278.281,420.268Zm0-8a2.667,2.667,0,1,0,2.667,2.667A2.675,2.675,0,0,0,278.281,412.268Z" transform="translate(-205.472 -345.601)" fill="#4d5152"/>
    <circle id="椭圆_1257" data-name="椭圆 1257" cx="4" cy="4" r="4" transform="translate(82.143 14.667)" fill="#fff"/>
    <path id="路径_14200" data-name="路径 14200" d="M363.615,96a5.333,5.333,0,1,1,5.333-5.333A5.349,5.349,0,0,1,363.615,96Zm0-8a2.667,2.667,0,1,0,2.667,2.667A2.675,2.675,0,0,0,363.615,88Z" transform="translate(-277.473 -72.001)" fill="#4d5152"/>
  </g>
</svg>
