<svg xmlns="http://www.w3.org/2000/svg" width="98.462" height="80" viewBox="0 0 98.462 80">
  <g id="组_4620" data-name="组 4620" transform="translate(2017 -758)">
    <g id="组_4616" data-name="组 4616" transform="translate(-2017 758)">
      <path id="路径_13889" data-name="路径 13889" d="M97.231,417.231H14.154L8,411.077V408H44.923L48,411.077H63.385L66.462,408h36.923v3.077Z" transform="translate(-6.462 -338.769)" fill="#fff"/>
      <path id="路径_13890" data-name="路径 13890" d="M128,189.846V140.615A4.533,4.533,0,0,0,123.385,136H52.615A4.533,4.533,0,0,0,48,140.615v49.231" transform="translate(-38.769 -119.077)" fill="#fff"/>
      <path id="路径_13891" data-name="路径 13891" d="M91.385,412.308H7.077L0,405.231V400H39.077l3.077,3.077H56.308L59.385,400H98.462v5.231ZM8.308,409.231H90.154L95.385,404v-.923H60.615l-3.077,3.077H40.923l-3.077-3.077H3.077V404Z" transform="translate(0 -332.308)" fill="#4d5152"/>
      <path id="路径_13892" data-name="路径 13892" d="M43.077,180.308H40V134.154A6.172,6.172,0,0,1,46.154,128v3.077a3.086,3.086,0,0,0-3.077,3.077Z" transform="translate(-32.308 -112.615)" fill="#4d5152"/>
      <path id="路径_13893" data-name="路径 13893" d="M446.154,180.308h-3.077V134.154A3.086,3.086,0,0,0,440,131.077V128a6.172,6.172,0,0,1,6.154,6.154Z" transform="translate(-355.385 -112.615)" fill="#4d5152"/>
      <rect id="矩形_3919" data-name="矩形 3919" width="70.769" height="43.077" transform="translate(13.846 21.538)" fill="#f0efff"/>
      <path id="路径_13894" data-name="路径 13894" d="M157.538,111.385H131.385l-3.077,3.077h-3.077l-3.077-3.077H96V56h26.154l3.077,3.077h3.077L131.385,56h26.154Z" transform="translate(-77.538 -54.462)" fill="#fff"/>
      <path id="路径_13895" data-name="路径 13895" d="M121.846,109.538h-3.077a1.4,1.4,0,0,1-1.077-.462l-2.615-2.615H89.538A1.453,1.453,0,0,1,88,104.923V49.538A1.453,1.453,0,0,1,89.538,48h26.154a1.4,1.4,0,0,1,1.077.462l2.615,2.615h1.846l2.615-2.615A1.4,1.4,0,0,1,124.923,48h26.154a1.453,1.453,0,0,1,1.538,1.538v55.385a1.453,1.453,0,0,1-1.538,1.538H125.538l-2.615,2.615A1.4,1.4,0,0,1,121.846,109.538Zm-2.462-3.077h1.846l2.615-2.615a1.4,1.4,0,0,1,1.077-.462h24.615V51.077h-24l-2.615,2.615a1.4,1.4,0,0,1-1.077.462h-3.077a1.4,1.4,0,0,1-1.077-.462l-2.615-2.615h-24v52.308h24.615a1.4,1.4,0,0,1,1.077.462Z" transform="translate(-71.077 -48)" fill="#4d5152"/>
      <rect id="矩形_3920" data-name="矩形 3920" width="3.077" height="55.385" transform="translate(47.692 4.615)" fill="#333"/>
      <rect id="矩形_3921" data-name="矩形 3921" width="21.538" height="15.385" transform="translate(23.077 9.231)" fill="#f9746c"/>
      <g id="组_4623" data-name="组 4623">
        <rect id="矩形_3922" data-name="矩形 3922" width="21.538" height="3.077" transform="translate(23.077 27.692)" fill="#4d5152"/>
        <rect id="矩形_3923" data-name="矩形 3923" width="21.538" height="3.077" transform="translate(23.077 33.846)" fill="#4d5152"/>
        <rect id="矩形_3924" data-name="矩形 3924" width="21.538" height="3.077" transform="translate(23.077 40)" fill="#4d5152"/>
        <rect id="矩形_3925" data-name="矩形 3925" width="21.538" height="3.077" transform="translate(23.077 46.154)" fill="#4d5152"/>
        <rect id="矩形_3926" data-name="矩形 3926" width="21.538" height="3.077" transform="translate(53.846 33.846)" fill="#4d5152"/>
        <rect id="矩形_3927" data-name="矩形 3927" width="21.538" height="3.077" transform="translate(53.846 40)" fill="#4d5152"/>
        <rect id="矩形_3928" data-name="矩形 3928" width="21.538" height="3.077" transform="translate(53.846 46.154)" fill="#4d5152"/>
        <rect id="矩形_3929" data-name="矩形 3929" width="21.538" height="3.077" transform="translate(53.846 9.231)" fill="#4d5152"/>
        <rect id="矩形_3930" data-name="矩形 3930" width="21.538" height="3.077" transform="translate(53.846 15.385)" fill="#4d5152"/>
      </g>
      <rect id="矩形_3931" data-name="矩形 3931" width="21.538" height="9.231" transform="translate(53.846 21.538)" fill="#6c63ff"/>
      <g id="组_4483" data-name="组 4483" transform="translate(56.923 24.615)">
        <rect id="矩形_3932" data-name="矩形 3932" width="3.077" height="3.077" transform="translate(6.154)" fill="#fff"/>
        <rect id="矩形_3933" data-name="矩形 3933" width="3.077" height="3.077" fill="#fff"/>
        <rect id="矩形_3934" data-name="矩形 3934" width="3.077" height="3.077" transform="translate(12.308)" fill="#fff"/>
      </g>
    </g>
  </g>
</svg>
