<svg xmlns="http://www.w3.org/2000/svg" width="59.968" height="60" viewBox="0 0 59.968 60">
  <g id="组_4612" data-name="组 4612" transform="translate(-496 -1144)">
    <g id="head4" transform="translate(495.863 1144)">
      <path id="路径_11061" data-name="路径 11061" d="M127.637,67.062V55.812c0-9.375-7.5-17.25-7.5-28.125a19.687,19.687,0,0,1,39.375,0l5.625,14.063h-5.625v8.437a5.642,5.642,0,0,1-5.625,5.625h-5.625v11.25" transform="translate(-105.938 -7.063)" fill="#fff"/>
      <g id="组_4599" data-name="组 4599" transform="translate(16.074 0)">
        <rect id="矩形_4130" data-name="矩形 4130" width="2.499" height="2.499" transform="translate(24.041 47.475)" fill="#5f6465"/>
        <path id="路径_11062" data-name="路径 11062" d="M229.712,60h-1.875V48.75a.886.886,0,0,1,.938-.937H234.4a4.642,4.642,0,0,0,4.688-4.687V34.687a.886.886,0,0,1,.938-.937h4.219L239.087,21c0-.094-.094-.187-.094-.375a18.805,18.805,0,0,0-18.75-18.75,18.4,18.4,0,0,0-8.062,1.781l-.844-1.687a21.643,21.643,0,0,1,9-1.969,20.647,20.647,0,0,1,20.625,20.437l5.531,13.875a.881.881,0,0,1-.094.844.956.956,0,0,1-.75.469h-4.687v7.5a6.522,6.522,0,0,1-6.562,6.562h-4.687Z" transform="translate(-202.525 0)" fill="#5f6465"/>
        <path id="路径_11063" data-name="路径 11063" d="M142.7,305.069h-1.875v-11.25c0-4.312-1.687-8.344-3.469-12.656-.375-.937-.844-1.969-1.219-2.906l1.781-.656c.375.938.75,1.969,1.219,2.906,1.781,4.406,3.563,8.625,3.563,13.313Z" transform="translate(-136.137 -245.069)" fill="#5f6465"/>
      </g>
      <path id="路径_11064" data-name="路径 11064" d="M27.324,15a3.023,3.023,0,0,1,2.813-2.812L27.324,6.562c-1.219.938-2.625,1.125-3.75,0s-.938-2.531,0-3.75L17.949,0a3.023,3.023,0,0,1-2.812,2.812A3.023,3.023,0,0,1,12.324,0L6.7,2.812c.937,1.219,1.125,2.625,0,3.75s-2.531.938-3.75,0C1.918,8.156.512,10.219.137,12.187A3.023,3.023,0,0,1,2.949,15,3.023,3.023,0,0,1,.137,17.812l2.812,5.625c1.219-.937,2.625-1.125,3.75,0s.937,2.531,0,3.75L12.324,30a3.023,3.023,0,0,1,2.812-2.812A3.023,3.023,0,0,1,17.949,30l5.625-2.812c-.938-1.219-1.125-2.625,0-3.75s2.531-.937,3.75,0l2.813-5.625A3.023,3.023,0,0,1,27.324,15Z" fill="#6c63ff"/>
      <circle id="椭圆_1135" data-name="椭圆 1135" cx="3.748" cy="3.748" r="3.748" transform="translate(11.381 11.244)" fill="#fff"/>
      <g id="组_4600" data-name="组 4600" transform="translate(5.762 5.625)">
        <path id="路径_11065" data-name="路径 11065" d="M57.512,66.75a9.375,9.375,0,1,1,9.375-9.375A9.4,9.4,0,0,1,57.512,66.75Zm0-16.875a7.5,7.5,0,1,0,7.5,7.5A7.522,7.522,0,0,0,57.512,49.875Z" transform="translate(-48.137 -48)" fill="#fff"/>
        <rect id="矩形_4131" data-name="矩形 4131" width="2.499" height="2.499" transform="translate(8.118 8.118)" fill="#fff"/>
      </g>
      <path id="路径_11066" data-name="路径 11066" d="M239.543,191.294a2.156,2.156,0,1,1,0-4.312.7.7,0,0,1,.469.094,11.251,11.251,0,0,0-1.406-3.469c-.094.094-.187.281-.281.375a2.188,2.188,0,0,1-3.094-3.094c.094-.094.281-.187.375-.281a10.383,10.383,0,0,0-3.469-1.406,4.061,4.061,0,0,0,.094.469,2.156,2.156,0,0,1-4.312,0,.7.7,0,0,1,.094-.469,11.251,11.251,0,0,0-3.469,1.406,1.294,1.294,0,0,1,.375.281,2.188,2.188,0,1,1-3.094,3.094c-.094-.094-.187-.281-.281-.375a10.384,10.384,0,0,0-1.406,3.469,4.06,4.06,0,0,0,.469-.094,2.156,2.156,0,1,1,0,4.312.7.7,0,0,1-.469-.094,11.251,11.251,0,0,0,1.406,3.469,1.3,1.3,0,0,1,.281-.375,2.326,2.326,0,0,1,3.188-.094,2.237,2.237,0,0,1-.094,3.187c-.094.094-.281.188-.375.281a10.383,10.383,0,0,0,3.469,1.406,4.063,4.063,0,0,0-.094-.469,2.156,2.156,0,0,1,4.313,0,.7.7,0,0,1-.094.469,11.25,11.25,0,0,0,3.469-1.406,1.294,1.294,0,0,1-.375-.281,2.188,2.188,0,0,1,3.094-3.094c.094.094.188.281.281.375a10.383,10.383,0,0,0,1.406-3.469A1.019,1.019,0,0,1,239.543,191.294Z" transform="translate(-194.219 -158.2)" fill="#f9746c"/>
      <path id="路径_11067" data-name="路径 11067" d="M268.824,233.375a4.688,4.688,0,1,1,4.688-4.687A4.642,4.642,0,0,1,268.824,233.375Zm0-7.5a2.813,2.813,0,1,0,2.812,2.813A2.762,2.762,0,0,0,268.824,225.875Z" transform="translate(-233.063 -197.75)" fill="#fff"/>
    </g>
  </g>
</svg>
