<svg xmlns="http://www.w3.org/2000/svg" width="60" height="60" viewBox="0 0 60 60">
  <g id="组_4613" data-name="组 4613" transform="translate(-577 -1143)">
    <circle id="椭圆_1140" data-name="椭圆 1140" cx="30" cy="30" r="30" transform="translate(577 1143)" fill="#6c63ff"/>
    <path id="路径_11085" data-name="路径 11085" d="M71.5,95.313v-7.5c0-9.375-7.5-17.25-7.5-28.125a19.688,19.688,0,0,1,39.375,0L109,73.75h-5.625v8.438a5.642,5.642,0,0,1-5.625,5.625H92.125v7.5" transform="translate(520.5 1107.688)" fill="#fff"/>
    <g id="组_4607" data-name="组 4607" transform="translate(583.563 1146.75)">
      <rect id="矩形_4137" data-name="矩形 4137" width="2.813" height="1.875" transform="translate(26.25 47.813)" fill="#5f6465"/>
      <path id="路径_11086" data-name="路径 11086" d="M86,88.25H84.125v-7.5a.886.886,0,0,1,.938-.937h5.625a4.642,4.642,0,0,0,4.688-4.687V66.688a.886.886,0,0,1,.938-.937h4.219L95.375,53c0-.094-.094-.187-.094-.375a18.7,18.7,0,1,0-37.406,0c0,5.438,1.969,10.219,3.844,14.719s3.656,8.719,3.656,13.406v7.5H63.5v-7.5c0-4.312-1.687-8.344-3.469-12.656C58.063,63.406,56,58.438,56,52.625a20.625,20.625,0,0,1,41.25-.187l5.531,13.875a.881.881,0,0,1-.094.844.956.956,0,0,1-.75.469H97.25v7.5a6.522,6.522,0,0,1-6.562,6.563H86Z" transform="translate(-56 -32)" fill="#5f6465"/>
    </g>
    <circle id="椭圆_1141" data-name="椭圆 1141" cx="13.125" cy="13.125" r="13.125" transform="translate(591.063 1154.25)" fill="#f9746c"/>
    <rect id="矩形_4138" data-name="矩形 4138" width="1.875" height="22.5" transform="translate(603.25 1158)" fill="#5f6465"/>
    <path id="路径_11087" data-name="路径 11087" d="M158.5,120s0,14.063-11.25,14.063S136,120,136,120s11.25.938,11.25,7.5C147.25,120.938,158.5,120,158.5,120Z" transform="translate(456.938 1037.063)" fill="#fff"/>
    <path id="路径_11088" data-name="路径 11088" d="M140.188,127.938c-12.094,0-12.187-14.812-12.187-15a.851.851,0,0,1,.281-.656,1.065,1.065,0,0,1,.75-.281c.375,0,8.438.75,11.156,5.156,2.813-4.406,10.781-5.062,11.156-5.156a1.065,1.065,0,0,1,.75.281,1.013,1.013,0,0,1,.281.656C152.375,113.125,152.281,127.938,140.188,127.938Zm-10.219-13.969c.188,3.188,1.688,12.094,10.219,12.094s10.031-8.906,10.219-12.094c-2.625.375-9.281,1.875-9.281,6.469a.938.938,0,0,1-1.875,0C139.25,115.938,132.594,114.438,129.969,113.969Z" transform="translate(464 1044.125)" fill="#5f6465"/>
    <path id="路径_11089" data-name="路径 11089" d="M207.5,82.313c0,3.656-3.75,9.375-3.75,9.375S200,85.969,200,82.313C200,77.625,203.75,72,203.75,72S207.5,77.625,207.5,82.313Z" transform="translate(400.438 1079.438)" fill="#fff"/>
    <path id="路径_11090" data-name="路径 11090" d="M196.688,85.209a.835.835,0,0,1-.75-.469c-.187-.187-3.937-6-3.937-9.844,0-4.875,3.75-10.594,3.938-10.875a.964.964,0,0,1,1.594,0c.094.281,3.844,6,3.844,10.875,0,3.844-3.75,9.656-3.937,9.844A.835.835,0,0,1,196.688,85.209Zm0-18.844c-1.031,1.875-2.812,5.438-2.812,8.531,0,2.344,1.781,5.719,2.813,7.594,1.031-1.875,2.813-5.25,2.813-7.594C199.5,71.8,197.719,68.241,196.688,66.366Z" transform="translate(407.5 1086.853)" fill="#5f6465"/>
  </g>
</svg>
