<svg xmlns="http://www.w3.org/2000/svg" width="65.953" height="60" viewBox="0 0 65.953 60">
  <g id="组_5132" data-name="组 5132" transform="translate(-791.5 -1280)">
    <g id="组_5127" data-name="组 5127" transform="translate(816.422 1280)">
      <rect id="矩形_4383" data-name="矩形 4383" width="3" height="1" transform="translate(20.578 48)" fill="#5f6465"/>
      <path id="路径_14212" data-name="路径 14212" d="M208.525,60H206.65V48.75a.886.886,0,0,1,.938-.937h5.625a4.642,4.642,0,0,0,4.688-4.687V34.688a.886.886,0,0,1,.938-.937h4.219L217.9,21c0-.094-.094-.187-.094-.375a18.805,18.805,0,0,0-18.75-18.75A18.1,18.1,0,0,0,188.368,5.25l-1.031-1.5a20.59,20.59,0,0,1,32.438,16.688l5.531,13.875a.881.881,0,0,1-.094.844.956.956,0,0,1-.75.469h-4.687v7.5a6.522,6.522,0,0,1-6.562,6.563h-4.687Z" transform="translate(-184.337 0)" fill="#5f6465"/>
      <path id="路径_14213" data-name="路径 14213" d="M165.3,360.862h-1.875v-11.25a22.227,22.227,0,0,0-1.687-8.156l1.781-.656a25.311,25.311,0,0,1,1.781,8.719Z" transform="translate(-161.737 -300.862)" fill="#5f6465"/>
    </g>
    <g id="组_5130" data-name="组 5130" transform="translate(388 139)">
      <g id="kitchen11" transform="translate(404 1144)">
        <circle id="椭圆_1136" data-name="椭圆 1136" cx="14.5" cy="14.5" r="14.5" transform="translate(0.69 0.69)" fill="#fff"/>
        <path id="路径_11068" data-name="路径 11068" d="M299.754,296l12.515,12.515a3.765,3.765,0,0,1-3.754,3.754L296,299.754" transform="translate(-272.848 -272.848)" fill="#f9746c"/>
        <g id="组_4601" data-name="组 4601">
          <path id="路径_11069" data-name="路径 11069" d="M15.018,30.035A15.018,15.018,0,1,1,30.035,15.018,15.062,15.062,0,0,1,15.018,30.035Zm0-28.784A13.766,13.766,0,1,0,28.784,15.018,13.807,13.807,0,0,0,15.018,1.251Z" fill="#5f6465" stroke="#5f6465" stroke-width="1"/>
          <path id="路径_11070" data-name="路径 11070" d="M303.353,307.733a.568.568,0,0,1-.438-.188L290.4,295.03l.876-.876L303.6,306.481a3.147,3.147,0,0,0,2.878-2.878l-12.327-12.327.876-.876,12.515,12.515a.568.568,0,0,1,.188.438A4.353,4.353,0,0,1,303.353,307.733Z" transform="translate(-267.686 -267.686)" fill="#5f6465" stroke="#5f6465" stroke-width="1"/>
          <rect id="矩形_4132" data-name="矩形 4132" width="0.69" height="0.69" transform="translate(35.904 35.904)" fill="#5f6465" stroke="#5f6465" stroke-width="1"/>
        </g>
        <circle id="椭圆_1137" data-name="椭圆 1137" cx="10.012" cy="10.012" r="10.012" transform="translate(4.833 4.833)" fill="#6c63ff"/>
      </g>
    </g>
  </g>
</svg>
