<svg xmlns="http://www.w3.org/2000/svg" width="59.968" height="60" viewBox="0 0 59.968 60">
  <g id="组_5133" data-name="组 5133" transform="translate(-518.485 -1280)">
    <g id="组_5129" data-name="组 5129" transform="translate(-500)">
      <g id="head17" transform="translate(1018.348 1280)">
        <path id="路径_14211" data-name="路径 14211" d="M127.637,67.063V55.813c0-9.375-7.5-17.25-7.5-28.125a19.688,19.688,0,0,1,39.375,0l5.625,14.063h-5.625v8.438a5.642,5.642,0,0,1-5.625,5.625h-5.625v11.25" transform="translate(-105.938 -7.063)" fill="#fff"/>
        <g id="组_5127" data-name="组 5127" transform="translate(19.074)">
          <rect id="矩形_4383" data-name="矩形 4383" width="3" height="1" transform="translate(20.578 48)" fill="#5f6465"/>
          <path id="路径_14212" data-name="路径 14212" d="M208.525,60H206.65V48.75a.886.886,0,0,1,.938-.937h5.625a4.642,4.642,0,0,0,4.688-4.687V34.688a.886.886,0,0,1,.938-.937h4.219L217.9,21c0-.094-.094-.187-.094-.375a18.805,18.805,0,0,0-18.75-18.75A18.1,18.1,0,0,0,188.368,5.25l-1.031-1.5a20.59,20.59,0,0,1,32.438,16.688l5.531,13.875a.881.881,0,0,1-.094.844.956.956,0,0,1-.75.469h-4.687v7.5a6.522,6.522,0,0,1-6.562,6.563h-4.687Z" transform="translate(-184.337 0)" fill="#5f6465"/>
          <path id="路径_14213" data-name="路径 14213" d="M165.3,360.862h-1.875v-11.25a22.227,22.227,0,0,0-1.687-8.156l1.781-.656a25.311,25.311,0,0,1,1.781,8.719Z" transform="translate(-161.737 -300.862)" fill="#5f6465"/>
        </g>
        <path id="路径_14214" data-name="路径 14214" d="M37.2,100.125H26.887a4.751,4.751,0,0,0,1.875-3.75,4.687,4.687,0,0,0-9.375,0,4.751,4.751,0,0,0,1.875,3.75H10.949a2.762,2.762,0,0,1-2.813-2.812v-22.5A2.762,2.762,0,0,1,10.949,72H21.262a4.751,4.751,0,0,0-1.875,3.75,4.688,4.688,0,0,0,9.375,0A4.751,4.751,0,0,0,26.887,72H37.2a2.762,2.762,0,0,1,2.813,2.813V83.25a4.751,4.751,0,0,1,3.75-1.875,4.688,4.688,0,1,1,0,9.375,4.751,4.751,0,0,1-3.75-1.875v8.438A2.762,2.762,0,0,1,37.2,100.125Z" transform="translate(-7.063 -63.563)" fill="#6c63ff"/>
        <g id="组_5128" data-name="组 5128" transform="translate(0.137 7.5)">
          <path id="路径_14215" data-name="路径 14215" d="M30.137,94H19.824a.9.9,0,0,1-.844-.656.89.89,0,0,1,.375-1.031,3.75,3.75,0,1,0-4.5,0,1.115,1.115,0,0,1,.375,1.031A1.153,1.153,0,0,1,14.2,94H3.887a3.761,3.761,0,0,1-3.75-3.75V67.75A3.761,3.761,0,0,1,3.887,64H14.2a.9.9,0,0,1,.844.656.89.89,0,0,1-.375,1.031,3.75,3.75,0,1,0,4.5,0,1.115,1.115,0,0,1-.375-1.031A1.42,1.42,0,0,1,19.824,64H30.137a3.761,3.761,0,0,1,3.75,3.75v6.375a5.727,5.727,0,0,1,2.813-.75,5.625,5.625,0,1,1,0,11.25,5.727,5.727,0,0,1-2.812-.75V90.25A3.761,3.761,0,0,1,30.137,94Zm-8.25-1.875h8.25a1.881,1.881,0,0,0,1.875-1.875V81.813a.9.9,0,0,1,.656-.844.89.89,0,0,1,1.031.375,3.75,3.75,0,1,0,0-4.5,1.115,1.115,0,0,1-1.031.375,1.42,1.42,0,0,1-.656-1.031V67.75a1.881,1.881,0,0,0-1.875-1.875h-8.25a5.727,5.727,0,0,1,.75,2.813,5.625,5.625,0,0,1-11.25,0,5.727,5.727,0,0,1,.75-2.812H3.887A1.881,1.881,0,0,0,2.012,67.75v22.5a1.881,1.881,0,0,0,1.875,1.875h8.25a5.727,5.727,0,0,1-.75-2.812,5.625,5.625,0,0,1,11.25,0A5.727,5.727,0,0,1,21.887,92.125Z" transform="translate(-0.137 -64)" fill="#5f6465"/>
        </g>
      </g>
      <g id="矩形_4384" data-name="矩形 4384" transform="translate(1025 1300)" fill="#f9746c" stroke="#5f6465" stroke-width="1">
        <rect width="5" height="5" stroke="none"/>
        <rect x="0.5" y="0.5" width="4" height="4" fill="none"/>
      </g>
      <g id="矩形_4385" data-name="矩形 4385" transform="translate(1033 1300)" fill="#f9746c" stroke="#5f6465" stroke-width="1">
        <rect width="5" height="5" stroke="none"/>
        <rect x="0.5" y="0.5" width="4" height="4" fill="none"/>
      </g>
      <g id="矩形_4386" data-name="矩形 4386" transform="translate(1041 1300)" fill="#f9746c" stroke="#5f6465" stroke-width="1">
        <rect width="5" height="5" stroke="none"/>
        <rect x="0.5" y="0.5" width="4" height="4" fill="none"/>
      </g>
    </g>
  </g>
</svg>
